<svg xmlns="http://www.w3.org/2000/svg" version="1.1" xmlns:xlink="http://www.w3.org/1999/xlink" xmlns:svgjs="http://svgjs.dev/svgjs" width="1000" height="361" viewBox="0 0 1000 361"><g transform="matrix(1,0,0,1,-0.6060606060606233,0.6220603546442476)"><svg viewBox="0 0 396 143" data-background-color="#ffffff" preserveAspectRatio="xMidYMid meet" height="361" width="1000" xmlns="http://www.w3.org/2000/svg" xmlns:xlink="http://www.w3.org/1999/xlink"><g id="tight-bounds" transform="matrix(1,0,0,1,0.2400000000000091,-0.24641171942971596)"><svg viewBox="0 0 395.52 143.49282343885946" height="143.49282343885946" width="395.52"><g><svg viewBox="0 0 661.0446712953249 239.8239439304686" height="143.49282343885946" width="395.52"><g><rect width="8.32898818991135" height="239.8239439304686" x="254.4544377929894" y="0" fill="#ba3b0a" opacity="1" stroke-width="0" stroke="transparent" fill-opacity="1" class="rect-o-0" data-fill-palette-color="primary" rx="1%" id="o-0" data-palette-color="#ba3b0a"></rect></g><g transform="matrix(1,0,0,1,284.5870599879043,0.5965769749514038)"><svg viewBox="0 0 376.4576113074205 238.6307899805658" height="238.6307899805658" width="376.4576113074205"><g id="textblocktransform"><svg viewBox="0 0 376.4576113074205 238.6307899805658" height="238.6307899805658" width="376.4576113074205" id="textblock"><g><svg viewBox="0 0 376.4576113074205 198.76399999999998" height="198.76399999999998" width="376.4576113074205"><g transform="matrix(1,0,0,1,0,0)"><svg width="376.4576113074205" viewBox="4.649999618530273 -38.599998474121094 160.8000030517578 81.05000305175781" height="198.76399999999998" data-palette-color="#ba3b0a"><svg></svg><svg></svg><g class="undefined-text-0" data-fill-palette-color="primary" id="text-0"><path xmlns="http://www.w3.org/2000/svg" d="M26.3 0l-8.9-14.85h-5.8v14.85h-6.95v-37.9h14.35c8.933 0 13.4 3.85 13.4 11.55v0c0 2.867-0.667 5.217-2 7.05-1.333 1.833-3.317 3.1-5.95 3.8v0l9.6 15.5zM11.6-31.95v11.15h7.4c4.233 0 6.35-1.9 6.35-5.7v0c0-1.9-0.523-3.283-1.57-4.15-1.053-0.867-2.647-1.3-4.78-1.3v0zM57.3 0.85c-4.067 0-7.507-0.86-10.32-2.58-2.82-1.713-4.937-4.063-6.35-7.05-1.42-2.98-2.13-6.353-2.13-10.12v0c0-3.7 0.71-7.033 2.13-10 1.413-2.967 3.537-5.327 6.37-7.08 2.833-1.747 6.267-2.62 10.3-2.62v0c4 0 7.41 0.873 10.23 2.62 2.813 1.753 4.937 4.12 6.37 7.1 1.433 2.987 2.15 6.313 2.15 9.98v0c0 3.767-0.717 7.14-2.15 10.12-1.433 2.987-3.557 5.337-6.37 7.05-2.82 1.72-6.23 2.58-10.23 2.58zM57.3-5.1c2.433 0 4.527-0.6 6.28-1.8 1.747-1.2 3.08-2.86 4-4.98 0.913-2.113 1.37-4.503 1.37-7.17v0c0-2.567-0.467-4.877-1.4-6.93-0.933-2.047-2.273-3.67-4.02-4.87-1.753-1.2-3.83-1.8-6.23-1.8v0c-2.5 0-4.633 0.6-6.4 1.8-1.767 1.2-3.09 2.84-3.97 4.92-0.887 2.087-1.33 4.43-1.33 7.03v0c0 4.1 1.01 7.423 3.03 9.97 2.013 2.553 4.903 3.83 8.67 3.83zM106.9-37.9h6.95v37.9h-6.95v-16.05h-17v16.05h-6.95v-37.9h6.95v15.85h17zM123.15 0v-37.9h6.95v37.9zM165.45-37.9v6.05h-10.9v31.85h-6.9v-31.85h-10.9v-6.05z" fill="#ba3b0a" fill-rule="nonzero" stroke="none" stroke-width="1" stroke-linecap="butt" stroke-linejoin="miter" stroke-miterlimit="10" stroke-dasharray="" stroke-dashoffset="0" font-family="none" font-weight="none" font-size="none" text-anchor="none" style="mix-blend-mode: normal" data-fill-palette-color="primary" opacity="1"></path><path xmlns="http://www.w3.org/2000/svg" d="M28.6 4.55h6.95v37.9h-7.8l-16.15-26.6v26.6h-6.95v-37.9h7.85l16.1 26.6zM70.55 42.45l-3.35-9.35h-15.25l-3.35 9.35h-7l13.75-38.35h8.4l13.8 38.35zM54.1 27.05h10.95l-5.5-15.4zM83.65 42.45v-37.9h6.95v37.9zM121.55 42.45l-8.9-14.85h-5.8v14.85h-6.95v-37.9h14.35c8.933 0 13.4 3.85 13.4 11.55v0c0 2.867-0.667 5.217-2 7.05-1.333 1.833-3.317 3.1-5.95 3.8v0l9.6 15.5zM106.85 10.5v11.15h7.4c4.233 0 6.35-1.9 6.35-5.7v0c0-1.9-0.523-3.283-1.57-4.15-1.053-0.867-2.647-1.3-4.78-1.3v0z" fill="#ba3b0a" fill-rule="nonzero" stroke="none" stroke-width="1" stroke-linecap="butt" stroke-linejoin="miter" stroke-miterlimit="10" stroke-dasharray="" stroke-dashoffset="0" font-family="none" font-weight="none" font-size="none" text-anchor="none" style="mix-blend-mode: normal" data-fill-palette-color="primary" opacity="1"></path></g></svg></g></svg></g><g transform="matrix(1,0,0,1,0,220.56763400500353)"><svg viewBox="0 0 286.10778459363956 18.063155975562264" height="18.063155975562264" width="286.10778459363956"><g transform="matrix(1,0,0,1,0,0)"><svg width="286.10778459363956" viewBox="2.25 -40.95000076293945 862.3599853515625 54.45000076293945" height="18.063155975562264" data-palette-color="#ba3b0a"><path d="M2.25-7.5Q2.25-12.2 6.95-14.43 11.65-16.65 18.85-16.8L18.85-16.8 18.85-18.2Q18.85-20.55 18.35-21.9 17.85-23.25 16.63-23.88 15.4-24.5 13.15-24.5L13.15-24.5Q10.6-24.5 8.58-23.78 6.55-23.05 4.55-22L4.55-22 3.3-24.6Q3.95-25.15 5.7-26.05 7.45-26.95 9.75-27.65 12.05-28.35 14.35-28.35L14.35-28.35Q17.9-28.35 19.98-27.38 22.05-26.4 22.95-24.25 23.85-22.1 23.85-18.5L23.85-18.5 23.85-2.45 26.8-2.45 26.8-0.25Q25.8 0 24.28 0.25 22.75 0.5 21.6 0.5L21.6 0.5Q20.2 0.5 19.7 0.08 19.2-0.35 19.2-1.8L19.2-1.8 19.2-3.45Q17.7-1.95 15.53-0.7 13.35 0.55 10.6 0.55L10.6 0.55Q7 0.55 4.63-1.53 2.25-3.6 2.25-7.5L2.25-7.5ZM12.75-2.85Q14.05-2.85 15.75-3.65 17.45-4.45 18.85-5.55L18.85-5.55 18.85-14.15Q13.4-14.15 10.63-12.48 7.85-10.8 7.85-8.1L7.85-8.1Q7.85-5.4 9.18-4.13 10.5-2.85 12.75-2.85L12.75-2.85ZM33.3-2.9L33.3-23.9 29.7-24.8 29.7-27.5 36.85-28.4 37-28.4 38.05-27.5 38.05-25.4 38-24.2Q39.8-25.8 42.75-27.1 45.7-28.4 48.4-28.4L48.4-28.4Q51.55-28.4 53.27-27.2 55-26 55.7-23.53 56.4-21.05 56.4-16.85L56.4-16.85 56.4-2.85 59.9-2.5 59.9 0 48.05 0 48.05-2.45 51.15-2.85 51.15-16.9Q51.15-19.85 50.75-21.53 50.35-23.2 49.25-24.03 48.15-24.85 46.05-24.85L46.05-24.85Q44.25-24.85 42.2-23.95 40.15-23.05 38.55-21.85L38.55-21.85 38.55-2.9 41.95-2.45 41.95 0 30.15 0 30.15-2.45 33.3-2.9ZM63.5-7.5Q63.5-12.2 68.2-14.43 72.9-16.65 80.09-16.8L80.09-16.8 80.09-18.2Q80.09-20.55 79.59-21.9 79.09-23.25 77.87-23.88 76.65-24.5 74.4-24.5L74.4-24.5Q71.84-24.5 69.82-23.78 67.8-23.05 65.8-22L65.8-22 64.55-24.6Q65.2-25.15 66.95-26.05 68.7-26.95 71-27.65 73.3-28.35 75.59-28.35L75.59-28.35Q79.15-28.35 81.22-27.38 83.3-26.4 84.2-24.25 85.09-22.1 85.09-18.5L85.09-18.5 85.09-2.45 88.05-2.45 88.05-0.25Q87.05 0 85.52 0.25 84 0.5 82.84 0.5L82.84 0.5Q81.45 0.5 80.95 0.08 80.45-0.35 80.45-1.8L80.45-1.8 80.45-3.45Q78.95-1.95 76.77-0.7 74.59 0.55 71.84 0.55L71.84 0.55Q68.25 0.55 65.87-1.53 63.5-3.6 63.5-7.5L63.5-7.5ZM74-2.85Q75.3-2.85 77-3.65 78.7-4.45 80.09-5.55L80.09-5.55 80.09-14.15Q74.65-14.15 71.87-12.48 69.09-10.8 69.09-8.1L69.09-8.1Q69.09-5.4 70.42-4.13 71.75-2.85 74-2.85L74-2.85ZM95.19-2.9L95.19-37.3 91.14-37.85 91.14-40 99.19-40.95 99.29-40.95 100.39-40.2 100.39-2.85 104.64-2.45 104.64 0 91.14 0 91.14-2.45 95.19-2.9ZM108.19-13.95Q108.19-18.45 110.04-21.75 111.89-25.05 114.92-26.78 117.94-28.5 121.39-28.5L121.39-28.5Q127.69-28.5 130.87-24.5 134.04-20.5 134.04-14L134.04-14Q134.04-9.45 132.19-6.15 130.34-2.85 127.32-1.15 124.29 0.55 120.84 0.55L120.84 0.55Q114.54 0.55 111.37-3.45 108.19-7.45 108.19-13.95L108.19-13.95ZM121.14-2.3Q124.59-2.3 126.44-5.15 128.29-8 128.29-13.6L128.29-13.6Q128.29-19.15 126.59-22.4 124.89-25.65 121.14-25.65L121.14-25.65Q117.69-25.65 115.82-22.8 113.94-19.95 113.94-14.35L113.94-14.35Q113.94-8.8 115.69-5.55 117.44-2.3 121.14-2.3L121.14-2.3ZM150.54 13.5Q144.14 13.5 141.26 11.48 138.39 9.45 138.39 5.9L138.39 5.9Q138.39 3.7 139.76 1.85 141.14 0 143.04-0.95L143.04-0.95Q140.74-2.25 140.74-5.15L140.74-5.15Q140.74-6.95 141.79-8.55 142.84-10.15 144.54-11L144.54-11Q142.04-12.1 140.71-14.15 139.39-16.2 139.39-19L139.39-19Q139.39-21.9 141.01-24.05 142.64-26.2 145.31-27.35 147.99-28.5 150.99-28.5L150.99-28.5Q156.04-28.5 158.89-26.4L158.89-26.4Q159.64-27.15 161.19-27.85 162.74-28.55 164.49-28.55L164.49-28.55 166.19-28.55 166.19-24.15 160.69-24.15Q161.89-22.3 161.89-19.85L161.89-19.85Q161.89-16.9 160.41-14.63 158.94-12.35 156.31-11.1 153.69-9.85 150.39-9.85L150.39-9.85Q148.24-9.85 146.54-10.3L146.54-10.3Q145.84-9.6 145.39-8.75 144.94-7.9 144.94-7.1L144.94-7.1Q144.94-5.3 146.14-4.63 147.34-3.95 150.44-3.95L150.44-3.95 156.09-3.95Q160.94-3.95 163.29-2.1 165.64-0.25 165.64 3.15L165.64 3.15Q165.64 6 163.59 8.38 161.54 10.75 158.06 12.13 154.59 13.5 150.54 13.5L150.54 13.5ZM150.89-12.6Q156.59-12.6 156.59-19.35L156.59-19.35Q156.59-22.7 155.11-24.28 153.64-25.85 150.69-25.85L150.69-25.85Q147.94-25.85 146.34-24.33 144.74-22.8 144.74-19.45L144.74-19.45Q144.74-16.3 146.26-14.45 147.79-12.6 150.89-12.6L150.89-12.6ZM150.99 10.6Q153.44 10.6 155.61 9.88 157.79 9.15 159.14 7.73 160.49 6.3 160.49 4.4L160.49 4.4Q160.49 2.15 159.29 1.13 158.09 0.1 154.64 0.1L154.64 0.1 148.74 0.1Q146.74 0.1 145.59-0.15L145.59-0.15Q143.54 2.1 143.54 4.9L143.54 4.9Q143.54 7.7 145.24 9.15 146.94 10.6 150.99 10.6L150.99 10.6ZM191.69 0.45Q190.28 0.45 189.61-0.1 188.94-0.65 188.94-1.9L188.94-1.9 188.94-3.6Q187.28-1.95 184.81-0.7 182.34 0.55 179.84 0.55L179.84 0.55Q175.19 0.55 173.24-1.95 171.28-4.45 171.28-10.2L171.28-10.2 171.28-24.7 168.49-25.5 168.49-27.7 175.49-28.35 175.53-28.35 176.49-27.75 176.49-10.6Q176.49-7.7 176.91-6.08 177.34-4.45 178.41-3.68 179.49-2.9 181.53-2.9L181.53-2.9Q183.53-2.9 185.28-3.75 187.03-4.6 188.34-5.75L188.34-5.75 188.34-24.7 184.74-25.5 184.74-27.7 192.34-28.35 192.38-28.35 193.53-27.75 193.53-2.55 196.53-2.55 196.49-0.3Q195.09 0.05 194.06 0.25 193.03 0.45 191.69 0.45L191.69 0.45ZM212.83 0.55Q206.78 0.55 203.61-3.4 200.43-7.35 200.43-13.95L200.43-13.95Q200.43-18.3 202.08-21.6 203.73-24.9 206.71-26.7 209.68-28.5 213.48-28.5L213.48-28.5Q218.13-28.5 220.71-25.93 223.28-23.35 223.43-18.55L223.43-18.55Q223.43-15.5 223.08-13.9L223.08-13.9 205.88-13.9Q205.98-8.95 208.18-5.93 210.38-2.9 214.43-2.9L214.43-2.9Q216.43-2.9 218.61-3.63 220.78-4.35 221.98-5.35L221.98-5.35 222.93-3.15Q221.48-1.65 218.63-0.55 215.78 0.55 212.83 0.55L212.83 0.55ZM205.93-16.55L217.93-16.55Q218.08-17.6 218.08-18.7L218.08-18.7Q218.03-21.95 216.71-23.83 215.38-25.7 212.53-25.7L212.53-25.7Q209.63-25.7 207.91-23.6 206.18-21.5 205.93-16.55L205.93-16.55ZM237.23-37.9L237.23-40 245.23-40.95 245.33-40.95 246.48-40.2 246.48-25.15Q247.98-26.6 250.05-27.55 252.13-28.5 254.68-28.5L254.68-28.5Q257.68-28.5 260.15-27.05 262.63-25.6 264.1-22.55 265.58-19.5 265.58-14.85L265.58-14.85Q265.58-10.55 263.8-7.05 262.03-3.55 258.73-1.5 255.43 0.55 251.08 0.55L251.08 0.55Q247.63 0.55 244.78-0.13 241.93-0.8 241.33-1.35L241.33-1.35 241.33-37.35 237.23-37.9ZM252.63-24.95Q250.73-24.95 249.1-24.08 247.48-23.2 246.48-22.1L246.48-22.1 246.48-3.7Q246.78-3 248.2-2.58 249.63-2.15 251.43-2.15L251.43-2.15Q255.28-2.15 257.63-5.25 259.98-8.35 259.98-14.3L259.98-14.3Q259.98-19.65 257.93-22.3 255.88-24.95 252.63-24.95L252.63-24.95ZM273.98 12.45Q273.13 12.45 272.3 12.35 271.48 12.25 271.13 12.05L271.13 12.05 271.13 7.7Q271.43 7.9 272.3 8 273.18 8.1 273.98 8.1L273.98 8.1Q276.38 8.1 278.2 6.43 280.03 4.75 281.73 0L281.73 0 279.32 0 269.82-24.75 267.53-25.4 267.53-27.75 279.57-27.75 279.57-25.4 275.73-24.8 280.63-10.05 282.93-2.75 285.07-10.1 289.53-24.8 286.18-25.4 286.18-27.75 296.23-27.75 296.23-25.4 293.73-24.8Q286.38-2.3 285.07 0.75L285.07 0.75Q283.38 5.05 281.98 7.48 280.57 9.9 278.68 11.18 276.78 12.45 273.98 12.45L273.98 12.45ZM308.02-37.9L308.02-40 316.02-40.95 316.12-40.95 317.27-40.2 317.27-25.15Q318.77-26.6 320.85-27.55 322.92-28.5 325.47-28.5L325.47-28.5Q328.47-28.5 330.95-27.05 333.42-25.6 334.9-22.55 336.37-19.5 336.37-14.85L336.37-14.85Q336.37-10.55 334.6-7.05 332.82-3.55 329.52-1.5 326.22 0.55 321.87 0.55L321.87 0.55Q318.42 0.55 315.57-0.13 312.72-0.8 312.12-1.35L312.12-1.35 312.12-37.35 308.02-37.9ZM323.42-24.95Q321.52-24.95 319.9-24.08 318.27-23.2 317.27-22.1L317.27-22.1 317.27-3.7Q317.57-3 319-2.58 320.42-2.15 322.22-2.15L322.22-2.15Q326.07-2.15 328.42-5.25 330.77-8.35 330.77-14.3L330.77-14.3Q330.77-19.65 328.72-22.3 326.67-24.95 323.42-24.95L323.42-24.95ZM346.62-32.75Q345.02-32.75 344.22-33.65 343.42-34.55 343.42-35.95L343.42-35.95Q343.42-37.55 344.39-38.6 345.37-39.65 347.07-39.65L347.07-39.65Q348.77-39.65 349.57-38.75 350.37-37.85 350.37-36.45L350.37-36.45Q350.37-34.75 349.39-33.75 348.42-32.75 346.67-32.75L346.67-32.75 346.62-32.75ZM344.62-2.9L344.62-23.9 340.82-24.8 340.82-27.45 348.57-28.4 348.67-28.4 349.82-27.5 349.82-2.85 353.82-2.45 353.82 0 340.57 0 340.57-2.45 344.62-2.9ZM357.47 0L357.47-2.45 361.22-2.75 361.22-23.9 357.62-24.8 357.62-27.5 364.52-28.4 364.62-28.4 365.72-27.5 365.72-26.6 365.57-22.7 365.72-22.7Q366.22-23.55 367.52-24.9 368.82-26.25 370.87-27.38 372.92-28.5 375.32-28.5L375.32-28.5Q376.32-28.5 376.97-28.25L376.97-28.25 376.97-22.65Q376.62-22.9 375.84-23.13 375.07-23.35 374.12-23.35L374.12-23.35Q369.97-23.35 366.42-20.8L366.42-20.8 366.42-2.8 372.77-2.4 372.77 0 357.47 0ZM388.81 0.5Q385.96 0.5 384.56-0.8 383.16-2.1 383.16-5.25L383.16-5.25 383.16-24.45 379.56-24.45 379.56-26.7Q379.81-26.75 380.96-27.05 382.11-27.35 382.51-27.6L382.51-27.6Q383.31-28.05 383.76-29.4L383.76-29.4Q384.16-30.35 384.71-32.45 385.26-34.55 385.36-34.95L385.36-34.95 388.31-34.95 388.41-27.75 396.76-27.75 396.76-24.45 388.41-24.45 388.41-9.1Q388.41-6.25 388.59-5.1 388.76-3.95 389.34-3.6 389.91-3.25 391.31-3.25L391.31-3.25Q392.66-3.25 394.29-3.6 395.91-3.95 396.81-4.35L396.81-4.35 397.56-2.1Q396.36-1.2 393.69-0.35 391.01 0.5 388.81 0.5L388.81 0.5ZM403.31-2.85L403.31-37.3 399.11-37.85 399.11-40 407.26-40.95 407.36-40.95 408.46-40.2 408.46-28.6 408.26-24.35Q409.86-25.8 412.66-27.1 415.46-28.4 418.31-28.4L418.31-28.4Q421.46-28.4 423.21-27.2 424.96-26 425.66-23.53 426.36-21.05 426.36-16.85L426.36-16.85 426.36-2.9 429.86-2.45 429.86 0 417.91 0 417.91-2.45 421.16-2.9 421.16-16.9Q421.16-19.85 420.76-21.53 420.36-23.2 419.26-24.03 418.16-24.85 415.96-24.85L415.96-24.85Q414.16-24.85 412.11-23.95 410.06-23.05 408.51-21.85L408.51-21.85 408.51-2.9 411.96-2.45 411.96 0 400.31 0 400.31-2.45 403.31-2.85ZM439.91-7.5Q441.61-7.5 442.71-5.88 443.81-4.25 443.81-1.45L443.81-1.45Q443.81 1.4 442.91 4.05 442.01 6.7 440.66 8.58 439.31 10.45 438.01 11.2L438.01 11.2 437.96 11.2 436.26 10 436.26 9.45Q437.26 8.65 438.28 5.98 439.31 3.3 439.31 0.9L439.31 0.9Q439.31 0.15 439.03-0.33 438.76-0.8 438.16-1.45L438.16-1.45Q437.46-2.2 437.11-2.85 436.76-3.5 436.76-4.6L436.76-4.6Q436.76-5.9 437.58-6.7 438.41-7.5 439.66-7.5L439.66-7.5 439.91-7.5ZM472.95 0.55Q469.95 0.55 467.45-0.95 464.95-2.45 463.48-5.55 462-8.65 462-13.2L462-13.2Q462-17.45 463.75-20.95 465.5-24.45 468.78-26.48 472.05-28.5 476.5-28.5L476.5-28.5Q479.05-28.5 481.15-27.95L481.15-27.95 481.15-37.3 476.05-37.9 476.05-40.05 485.05-40.95 485.2-40.95 486.3-40.15 486.3-2.55 489.2-2.55 489.2-0.25Q487.6 0.1 486.43 0.3 485.25 0.5 483.95 0.5L483.95 0.5Q482.65 0.5 482.1 0.05 481.55-0.4 481.55-1.85L481.55-1.85 481.55-3.45Q480.15-1.75 477.88-0.6 475.6 0.55 472.95 0.55L472.95 0.55ZM474.95-3Q476.9-3 478.6-3.88 480.3-4.75 481.15-5.9L481.15-5.9 481.15-24.2Q480.75-24.8 479.28-25.28 477.8-25.75 476.15-25.75L476.15-25.75Q472.25-25.75 469.93-22.78 467.6-19.8 467.6-13.6L467.6-13.6Q467.6-8.2 469.65-5.6 471.7-3 474.95-3L474.95-3ZM499.1-32.75Q497.5-32.75 496.7-33.65 495.9-34.55 495.9-35.95L495.9-35.95Q495.9-37.55 496.88-38.6 497.85-39.65 499.55-39.65L499.55-39.65Q501.25-39.65 502.05-38.75 502.85-37.85 502.85-36.45L502.85-36.45Q502.85-34.75 501.88-33.75 500.9-32.75 499.15-32.75L499.15-32.75 499.1-32.75ZM497.1-2.9L497.1-23.9 493.3-24.8 493.3-27.45 501.05-28.4 501.15-28.4 502.3-27.5 502.3-2.85 506.3-2.45 506.3 0 493.05 0 493.05-2.45 497.1-2.9ZM521.8 13.5Q515.4 13.5 512.52 11.48 509.65 9.45 509.65 5.9L509.65 5.9Q509.65 3.7 511.02 1.85 512.4 0 514.3-0.95L514.3-0.95Q512-2.25 512-5.15L512-5.15Q512-6.95 513.05-8.55 514.1-10.15 515.8-11L515.8-11Q513.3-12.1 511.97-14.15 510.65-16.2 510.65-19L510.65-19Q510.65-21.9 512.27-24.05 513.9-26.2 516.57-27.35 519.25-28.5 522.25-28.5L522.25-28.5Q527.3-28.5 530.15-26.4L530.15-26.4Q530.9-27.15 532.45-27.85 534-28.55 535.75-28.55L535.75-28.55 537.45-28.55 537.45-24.15 531.95-24.15Q533.15-22.3 533.15-19.85L533.15-19.85Q533.15-16.9 531.67-14.63 530.2-12.35 527.57-11.1 524.95-9.85 521.65-9.85L521.65-9.85Q519.5-9.85 517.8-10.3L517.8-10.3Q517.1-9.6 516.65-8.75 516.2-7.9 516.2-7.1L516.2-7.1Q516.2-5.3 517.4-4.63 518.6-3.95 521.7-3.95L521.7-3.95 527.35-3.95Q532.2-3.95 534.55-2.1 536.9-0.25 536.9 3.15L536.9 3.15Q536.9 6 534.85 8.38 532.8 10.75 529.32 12.13 525.85 13.5 521.8 13.5L521.8 13.5ZM522.15-12.6Q527.85-12.6 527.85-19.35L527.85-19.35Q527.85-22.7 526.37-24.28 524.9-25.85 521.95-25.85L521.95-25.85Q519.2-25.85 517.6-24.33 516-22.8 516-19.45L516-19.45Q516-16.3 517.52-14.45 519.05-12.6 522.15-12.6L522.15-12.6ZM522.25 10.6Q524.7 10.6 526.87 9.88 529.05 9.15 530.4 7.73 531.75 6.3 531.75 4.4L531.75 4.4Q531.75 2.15 530.55 1.13 529.35 0.1 525.9 0.1L525.9 0.1 520 0.1Q518 0.1 516.85-0.15L516.85-0.15Q514.8 2.1 514.8 4.9L514.8 4.9Q514.8 7.7 516.5 9.15 518.2 10.6 522.25 10.6L522.25 10.6ZM546.1-32.75Q544.5-32.75 543.7-33.65 542.9-34.55 542.9-35.95L542.9-35.95Q542.9-37.55 543.87-38.6 544.85-39.65 546.55-39.65L546.55-39.65Q548.25-39.65 549.05-38.75 549.85-37.85 549.85-36.45L549.85-36.45Q549.85-34.75 548.87-33.75 547.9-32.75 546.15-32.75L546.15-32.75 546.1-32.75ZM544.1-2.9L544.1-23.9 540.3-24.8 540.3-27.45 548.05-28.4 548.15-28.4 549.3-27.5 549.3-2.85 553.3-2.45 553.3 0 540.05 0 540.05-2.45 544.1-2.9ZM565.39 0.5Q562.54 0.5 561.14-0.8 559.74-2.1 559.74-5.25L559.74-5.25 559.74-24.45 556.14-24.45 556.14-26.7Q556.39-26.75 557.54-27.05 558.69-27.35 559.09-27.6L559.09-27.6Q559.89-28.05 560.34-29.4L560.34-29.4Q560.74-30.35 561.29-32.45 561.84-34.55 561.94-34.95L561.94-34.95 564.89-34.95 564.99-27.75 573.34-27.75 573.34-24.45 564.99-24.45 564.99-9.1Q564.99-6.25 565.17-5.1 565.34-3.95 565.92-3.6 566.49-3.25 567.89-3.25L567.89-3.25Q569.24-3.25 570.87-3.6 572.49-3.95 573.39-4.35L573.39-4.35 574.14-2.1Q572.94-1.2 570.27-0.35 567.59 0.5 565.39 0.5L565.39 0.5ZM577.19-7.5Q577.19-12.2 581.89-14.43 586.59-16.65 593.79-16.8L593.79-16.8 593.79-18.2Q593.79-20.55 593.29-21.9 592.79-23.25 591.56-23.88 590.34-24.5 588.09-24.5L588.09-24.5Q585.54-24.5 583.51-23.78 581.49-23.05 579.49-22L579.49-22 578.24-24.6Q578.89-25.15 580.64-26.05 582.39-26.95 584.69-27.65 586.99-28.35 589.29-28.35L589.29-28.35Q592.84-28.35 594.91-27.38 596.99-26.4 597.89-24.25 598.79-22.1 598.79-18.5L598.79-18.5 598.79-2.45 601.74-2.45 601.74-0.25Q600.74 0 599.21 0.25 597.69 0.5 596.54 0.5L596.54 0.5Q595.14 0.5 594.64 0.08 594.14-0.35 594.14-1.8L594.14-1.8 594.14-3.45Q592.64-1.95 590.46-0.7 588.29 0.55 585.54 0.55L585.54 0.55Q581.94 0.55 579.56-1.53 577.19-3.6 577.19-7.5L577.19-7.5ZM587.69-2.85Q588.99-2.85 590.69-3.65 592.39-4.45 593.79-5.55L593.79-5.55 593.79-14.15Q588.34-14.15 585.56-12.48 582.79-10.8 582.79-8.1L582.79-8.1Q582.79-5.4 584.11-4.13 585.44-2.85 587.69-2.85L587.69-2.85ZM608.89-2.9L608.89-37.3 604.84-37.85 604.84-40 612.89-40.95 612.99-40.95 614.09-40.2 614.09-2.85 618.34-2.45 618.34 0 604.84 0 604.84-2.45 608.89-2.9ZM631.38-37.9L631.38-40 639.38-40.95 639.48-40.95 640.63-40.2 640.63-25.15Q642.13-26.6 644.21-27.55 646.28-28.5 648.83-28.5L648.83-28.5Q651.83-28.5 654.31-27.05 656.78-25.6 658.26-22.55 659.73-19.5 659.73-14.85L659.73-14.85Q659.73-10.55 657.96-7.05 656.18-3.55 652.88-1.5 649.58 0.55 645.23 0.55L645.23 0.55Q641.78 0.55 638.93-0.13 636.08-0.8 635.48-1.35L635.48-1.35 635.48-37.35 631.38-37.9ZM646.78-24.95Q644.88-24.95 643.26-24.08 641.63-23.2 640.63-22.1L640.63-22.1 640.63-3.7Q640.93-3 642.36-2.58 643.78-2.15 645.58-2.15L645.58-2.15Q649.43-2.15 651.78-5.25 654.13-8.35 654.13-14.3L654.13-14.3Q654.13-19.65 652.08-22.3 650.03-24.95 646.78-24.95L646.78-24.95ZM668.13 12.45Q667.28 12.45 666.45 12.35 665.63 12.25 665.28 12.05L665.28 12.05 665.28 7.7Q665.58 7.9 666.45 8 667.33 8.1 668.13 8.1L668.13 8.1Q670.53 8.1 672.35 6.43 674.18 4.75 675.88 0L675.88 0 673.48 0 663.98-24.75 661.68-25.4 661.68-27.75 673.73-27.75 673.73-25.4 669.88-24.8 674.78-10.05 677.08-2.75 679.23-10.1 683.68-24.8 680.33-25.4 680.33-27.75 690.38-27.75 690.38-25.4 687.88-24.8Q680.53-2.3 679.23 0.75L679.23 0.75Q677.53 5.05 676.13 7.48 674.73 9.9 672.83 11.18 670.93 12.45 668.13 12.45L668.13 12.45ZM715.32 0.55Q712.32 0.55 709.82-0.95 707.32-2.45 705.85-5.55 704.37-8.65 704.37-13.2L704.37-13.2Q704.37-17.45 706.12-20.95 707.87-24.45 711.15-26.48 714.42-28.5 718.87-28.5L718.87-28.5Q721.42-28.5 723.52-27.95L723.52-27.95 723.52-37.3 718.42-37.9 718.42-40.05 727.42-40.95 727.57-40.95 728.67-40.15 728.67-2.55 731.57-2.55 731.57-0.25Q729.97 0.1 728.8 0.3 727.62 0.5 726.32 0.5L726.32 0.5Q725.02 0.5 724.47 0.05 723.92-0.4 723.92-1.85L723.92-1.85 723.92-3.45Q722.52-1.75 720.25-0.6 717.97 0.55 715.32 0.55L715.32 0.55ZM717.32-3Q719.27-3 720.97-3.88 722.67-4.75 723.52-5.9L723.52-5.9 723.52-24.2Q723.12-24.8 721.65-25.28 720.17-25.75 718.52-25.75L718.52-25.75Q714.62-25.75 712.3-22.78 709.97-19.8 709.97-13.6L709.97-13.6Q709.97-8.2 712.02-5.6 714.07-3 717.32-3L717.32-3ZM747.87 0.55Q741.82 0.55 738.65-3.4 735.47-7.35 735.47-13.95L735.47-13.95Q735.47-18.3 737.12-21.6 738.77-24.9 741.75-26.7 744.72-28.5 748.52-28.5L748.52-28.5Q753.17-28.5 755.75-25.93 758.32-23.35 758.47-18.55L758.47-18.55Q758.47-15.5 758.12-13.9L758.12-13.9 740.92-13.9Q741.02-8.95 743.22-5.93 745.42-2.9 749.47-2.9L749.47-2.9Q751.47-2.9 753.65-3.63 755.82-4.35 757.02-5.35L757.02-5.35 757.97-3.15Q756.52-1.65 753.67-0.55 750.82 0.55 747.87 0.55L747.87 0.55ZM740.97-16.55L752.97-16.55Q753.12-17.6 753.12-18.7L753.12-18.7Q753.07-21.95 751.75-23.83 750.42-25.7 747.57-25.7L747.57-25.7Q744.67-25.7 742.95-23.6 741.22-21.5 740.97-16.55L740.97-16.55ZM766.52-7.9L767.42-4Q767.92-3.25 769.54-2.65 771.17-2.05 772.97-2.05L772.97-2.05Q775.82-2.05 777.17-3.15 778.52-4.25 778.52-6.2L778.52-6.2Q778.52-7.55 777.67-8.55 776.82-9.55 775.29-10.33 773.77-11.1 770.92-12.2L770.92-12.2Q767.07-13.65 765.29-15.68 763.52-17.7 763.52-21L763.52-21Q763.52-23.2 764.84-24.85 766.17-26.5 768.49-27.43 770.82-28.35 773.67-28.35L773.67-28.35Q775.97-28.35 777.69-28 779.42-27.65 780.47-27.3 781.52-26.95 781.87-26.85L781.87-26.85 781.87-20.65 778.82-20.65 777.82-24.35Q777.52-24.95 776.22-25.38 774.92-25.8 773.32-25.8L773.32-25.8Q771.07-25.8 769.69-24.8 768.32-23.8 768.32-22.1L768.32-22.1Q768.32-20.6 769.04-19.63 769.77-18.65 770.87-18.05 771.97-17.45 773.87-16.65L773.87-16.65 774.87-16.25Q777.67-15.15 779.42-14.15 781.17-13.15 782.34-11.53 783.52-9.9 783.52-7.55L783.52-7.55Q783.52-3.85 780.64-1.65 777.77 0.55 772.77 0.55L772.77 0.55Q770.32 0.55 767.64-0.13 764.97-0.8 763.27-1.5L763.27-1.5 763.27-7.9 766.52-7.9ZM793.92-32.75Q792.32-32.75 791.52-33.65 790.72-34.55 790.72-35.95L790.72-35.95Q790.72-37.55 791.69-38.6 792.67-39.65 794.37-39.65L794.37-39.65Q796.07-39.65 796.87-38.75 797.67-37.85 797.67-36.45L797.67-36.45Q797.67-34.75 796.69-33.75 795.72-32.75 793.97-32.75L793.97-32.75 793.92-32.75ZM791.92-2.9L791.92-23.9 788.12-24.8 788.12-27.45 795.87-28.4 795.97-28.4 797.12-27.5 797.12-2.85 801.12-2.45 801.12 0 787.87 0 787.87-2.45 791.92-2.9ZM816.61 13.5Q810.21 13.5 807.34 11.48 804.46 9.45 804.46 5.9L804.46 5.9Q804.46 3.7 805.84 1.85 807.21 0 809.11-0.95L809.11-0.95Q806.81-2.25 806.81-5.15L806.81-5.15Q806.81-6.95 807.86-8.55 808.91-10.15 810.61-11L810.61-11Q808.11-12.1 806.79-14.15 805.46-16.2 805.46-19L805.46-19Q805.46-21.9 807.09-24.05 808.71-26.2 811.39-27.35 814.06-28.5 817.06-28.5L817.06-28.5Q822.11-28.5 824.96-26.4L824.96-26.4Q825.71-27.15 827.26-27.85 828.81-28.55 830.56-28.55L830.56-28.55 832.26-28.55 832.26-24.15 826.76-24.15Q827.96-22.3 827.96-19.85L827.96-19.85Q827.96-16.9 826.49-14.63 825.01-12.35 822.39-11.1 819.76-9.85 816.46-9.85L816.46-9.85Q814.31-9.85 812.61-10.3L812.61-10.3Q811.91-9.6 811.46-8.75 811.01-7.9 811.01-7.1L811.01-7.1Q811.01-5.3 812.21-4.63 813.41-3.95 816.51-3.95L816.51-3.95 822.16-3.95Q827.01-3.95 829.36-2.1 831.71-0.25 831.71 3.15L831.71 3.15Q831.71 6 829.66 8.38 827.61 10.75 824.14 12.13 820.66 13.5 816.61 13.5L816.61 13.5ZM816.96-12.6Q822.66-12.6 822.66-19.35L822.66-19.35Q822.66-22.7 821.19-24.28 819.71-25.85 816.76-25.85L816.76-25.85Q814.01-25.85 812.41-24.33 810.81-22.8 810.81-19.45L810.81-19.45Q810.81-16.3 812.34-14.45 813.86-12.6 816.96-12.6L816.96-12.6ZM817.06 10.6Q819.51 10.6 821.69 9.88 823.86 9.15 825.21 7.73 826.56 6.3 826.56 4.4L826.56 4.4Q826.56 2.15 825.36 1.13 824.16 0.1 820.71 0.1L820.71 0.1 814.81 0.1Q812.81 0.1 811.66-0.15L811.66-0.15Q809.61 2.1 809.61 4.9L809.61 4.9Q809.61 7.7 811.31 9.15 813.01 10.6 817.06 10.6L817.06 10.6ZM838.01-2.9L838.01-23.9 834.41-24.8 834.41-27.5 841.56-28.4 841.71-28.4 842.76-27.5 842.76-25.4 842.71-24.2Q844.51-25.8 847.46-27.1 850.41-28.4 853.11-28.4L853.11-28.4Q856.26-28.4 857.99-27.2 859.71-26 860.41-23.53 861.11-21.05 861.11-16.85L861.11-16.85 861.11-2.85 864.61-2.5 864.61 0 852.76 0 852.76-2.45 855.86-2.85 855.86-16.9Q855.86-19.85 855.46-21.53 855.06-23.2 853.96-24.03 852.86-24.85 850.76-24.85L850.76-24.85Q848.96-24.85 846.91-23.95 844.86-23.05 843.26-21.85L843.26-21.85 843.26-2.9 846.66-2.45 846.66 0 834.86 0 834.86-2.45 838.01-2.9Z" opacity="1" transform="matrix(1,0,0,1,0,0)" fill="#ba3b0a" class="undefined-text-1" data-fill-palette-color="secondary" id="text-1"></path></svg></g></svg></g></svg></g></svg></g><g transform="matrix(1,0,0,1,0,15.718656311812595)"><svg viewBox="0 0 232.65080378798586 208.3866313068434" height="208.3866313068434" width="232.65080378798586"><g><svg xmlns="http://www.w3.org/2000/svg" xmlns:xlink="http://www.w3.org/1999/xlink" version="1.1" x="0" y="0" viewBox="5 6.900001049041748 81.5 73.00000762939453" style="enable-background:new 0 0 91 91;" xml:space="preserve" height="208.3866313068434" width="232.65080378798586" class="icon-icon-0" data-fill-palette-color="accent" id="icon-0"><g fill="#ba3b0a" data-fill-palette-color="accent"><path d="M38.6 56.8h15.6V41.2H38.6V56.8zM41.7 44.3h9.4v9.4h-9.4V44.3z" fill="#ba3b0a" data-fill-palette-color="accent"></path><path d="M82.1 44.6c-2.4 0-4.4 2-4.4 4.4s2 4.4 4.4 4.4 4.4-2 4.4-4.4S84.5 44.6 82.1 44.6zM82.1 50.3c-0.7 0-1.3-0.6-1.3-1.3s0.6-1.3 1.3-1.3c0.7 0 1.3 0.6 1.3 1.3S82.8 50.3 82.1 50.3z" fill="#ba3b0a" data-fill-palette-color="accent"></path><path d="M62.1 23.7h6.8c0.6 1.7 2.2 2.8 4.1 2.8 2.4 0 4.4-2 4.4-4.4s-2-4.4-4.4-4.4c-1.9 0-3.5 1.2-4.1 2.8h-6.8c-0.5-0.7-1.3-1.2-2.3-1.2-1.5 0-2.8 1.2-2.8 2.8 0 1 0.5 1.8 1.2 2.3v4.9h-9.8v-4.9c0.7-0.5 1.2-1.3 1.2-2.3 0-1.5-1.2-2.8-2.8-2.8S44 20.6 44 22.1c0 1 0.5 1.8 1.2 2.3v4.9h-9.8v-4.9c0.7-0.5 1.2-1.3 1.2-2.3 0-1-0.5-1.8-1.2-2.3v-4.4c1.7-0.6 2.8-2.2 2.8-4.1 0-2.4-2-4.4-4.4-4.4s-4.4 2-4.4 4.4c0 1.9 1.2 3.5 2.8 4.1v4.4c-0.7 0.5-1.2 1.3-1.2 2.3 0 1 0.5 1.8 1.2 2.3v4.9h-5.7v5.2h-4.5c-0.5-0.7-1.3-1.2-2.3-1.2-1 0-1.8 0.5-2.3 1.2H7.9v5.4C6.2 40.5 5 42.1 5 44c0 2.4 2 4.4 4.4 4.4s4.4-2 4.4-4.4c0-1.9-1.2-3.5-2.8-4.1v-2.2h6.5c0.5 0.7 1.3 1.2 2.3 1.2 1 0 1.8-0.5 2.3-1.2h4.5v9.8h-4.5c-0.5-0.7-1.3-1.2-2.3-1.2-1.5 0-2.8 1.2-2.8 2.8s1.2 2.8 2.8 2.8c1 0 1.8-0.5 2.3-1.2h4.5v9.8h-4.5c-0.5-0.7-1.3-1.2-2.3-1.2-1 0-1.8 0.5-2.3 1.2h-4c-0.6-1.7-2.2-2.8-4.1-2.8C7 57.6 5 59.5 5 62s2 4.4 4.4 4.4c1.9 0 3.5-1.2 4.1-2.8h4c0.5 0.7 1.3 1.2 2.3 1.2 1 0 1.8-0.5 2.3-1.2h4.5v5h5.7v4.9c-0.2 0.1-0.3 0.2-0.4 0.4h-8c-0.6-1.7-2.2-2.8-4.1-2.8-2.4 0-4.4 2-4.4 4.4s2 4.4 4.4 4.4c1.9 0 3.5-1.2 4.1-2.8h7.5c0.4 0.9 1.4 1.6 2.5 1.6 1.5 0 2.8-1.2 2.8-2.8 0-1-0.5-1.8-1.2-2.3v-4.9h9.8v4.9c-0.7 0.5-1.2 1.3-1.2 2.3 0 1.5 1.2 2.8 2.8 2.8s2.8-1.2 2.8-2.8c0-1-0.5-1.8-1.2-2.3v-4.9h9.8v4.9c-0.7 0.5-1.2 1.3-1.2 2.3 0 1.5 1.2 2.8 2.8 2.8s2.8-1.2 2.8-2.8c0-1-0.5-1.8-1.2-2.3v-4.9c2.7 0 4.8-2.2 4.8-4.9v-0.1h4.5c0.2 0.3 0.4 0.5 0.7 0.7v7c-1.7 0.6-2.8 2.2-2.8 4.1 0 2.4 2 4.4 4.4 4.4s4.4-2 4.4-4.4c0-1.9-1.2-3.5-2.8-4.1v-7c0.7-0.5 1.2-1.3 1.2-2.3 0-1.5-1.2-2.8-2.8-2.8-1 0-1.8 0.5-2.3 1.2h-4.5v-9.8h4.5c0.5 0.7 1.3 1.2 2.3 1.2 1.5 0 2.8-1.2 2.8-2.8s-1.2-2.8-2.8-2.8c-1 0-1.8 0.5-2.3 1.2h-4.5v-9.8h4.5c0.5 0.7 1.3 1.2 2.3 1.2 1.5 0 2.8-1.2 2.8-2.8s-1.2-2.8-2.8-2.8c-1 0-1.8 0.5-2.3 1.2h-4.5v-5.2h-4.8v-4.9C61.6 24.2 61.9 24 62.1 23.7zM33.9 10.1c0.7 0 1.3 0.6 1.3 1.3 0 0.4-0.2 0.8-0.5 1-0.2-0.1-0.5-0.2-0.7-0.2-0.3 0-0.5 0.1-0.7 0.2-0.3-0.2-0.5-0.6-0.5-1C32.6 10.7 33.2 10.1 33.9 10.1zM9.4 45.2c-0.7 0-1.3-0.6-1.3-1.3 0-0.7 0.6-1.3 1.3-1.3 0.7 0 1.3 0.6 1.3 1.3C10.7 44.7 10.1 45.2 9.4 45.2zM9.4 63.2c-0.7 0-1.3-0.6-1.3-1.3s0.6-1.3 1.3-1.3c0.7 0 1.3 0.6 1.3 1.3S10.1 63.2 9.4 63.2zM19.8 76.6c-0.7 0-1.3-0.6-1.3-1.3 0-0.7 0.6-1.3 1.3-1.3 0.7 0 1.3 0.6 1.3 1.3C21.1 76.1 20.5 76.6 19.8 76.6zM73 76.6c-0.7 0-1.3-0.6-1.3-1.3 0-0.7 0.6-1.3 1.3-1.3 0.7 0 1.3 0.6 1.3 1.3C74.2 76.1 73.7 76.6 73 76.6zM63 63.6c0 1-0.8 1.8-1.8 1.8H29.8V32.4H63V63.6zM73 20.8c0.7 0 1.3 0.6 1.3 1.3s-0.6 1.3-1.3 1.3c-0.7 0-1.3-0.6-1.3-1.3S72.2 20.8 73 20.8z" fill="#ba3b0a" data-fill-palette-color="accent"></path></g></svg></g></svg></g></svg></g><defs></defs></svg><rect width="395.52" height="143.49282343885946" fill="none" stroke="none" visibility="hidden"></rect></g></svg></g></svg>